<?xml version="1.0" standalone="no"?>
<!DOCTYPE svg PUBLIC "-//W3C//DTD SVG 20010904//EN"
 "http://www.w3.org/TR/2001/REC-SVG-20010904/DTD/svg10.dtd">
<svg version="1.0" xmlns="http://www.w3.org/2000/svg"
 width="512.000000pt" height="512.000000pt" viewBox="0 0 512.000000 512.000000"
 preserveAspectRatio="xMidYMid meet">

<g transform="translate(0.000000,512.000000) scale(0.100000,-0.100000)"
fill="#000000" stroke="none">
<path d="M4674 3819 c-58 -17 -126 -71 -156 -126 -60 -107 -45 -221 41 -315
l47 -51 -82 -260 c-46 -142 -84 -261 -86 -263 -2 -1 -22 2 -45 7 l-41 11 -31
116 c-17 65 -41 156 -53 203 l-22 86 44 39 c190 171 59 482 -195 462 -224 -18
-323 -288 -164 -447 39 -40 81 -61 143 -76 l49 -11 48 -180 c27 -98 49 -184
49 -190 0 -6 -17 -16 -38 -22 -77 -23 -166 -92 -297 -230 -266 -281 -346 -355
-420 -393 -60 -31 -125 -55 -125 -47 -1 33 -44 286 -60 348 -129 506 -423 856
-867 1034 -257 103 -494 136 -723 102 -500 -76 -899 -455 -1006 -956 -27 -126
-25 -348 4 -455 30 -109 99 -246 166 -326 l55 -67 -102 -32 c-295 -93 -517
-208 -639 -330 -49 -49 -58 -64 -58 -94 0 -72 -197 -66 2207 -66 2150 0 2163
0 2183 20 23 23 26 58 8 83 -7 9 -42 27 -78 40 -152 57 -270 136 -270 181 0
29 26 66 163 230 264 317 360 489 361 651 1 85 -33 163 -95 220 l-40 36 88
272 89 272 49 6 c144 18 244 140 233 284 -14 167 -175 280 -334 234z m-2669
-894 c87 -23 152 -62 226 -135 113 -111 167 -248 155 -396 -10 -134 -65 -323
-100 -346 -25 -17 -66 -8 -82 18 -17 24 -16 29 10 107 37 110 53 238 37 314
-52 261 -317 399 -556 289 -128 -58 -225 -204 -225 -338 0 -65 -49 -96 -98
-62 -18 12 -22 25 -22 67 0 202 153 404 360 474 79 27 207 30 295 8z"/>
</g>
</svg>
