<?xml version="1.0" standalone="no"?>
<!DOCTYPE svg PUBLIC "-//W3C//DTD SVG 20010904//EN"
 "http://www.w3.org/TR/2001/REC-SVG-20010904/DTD/svg10.dtd">
<svg version="1.0" xmlns="http://www.w3.org/2000/svg"
 width="512.000000pt" height="512.000000pt" viewBox="0 0 512.000000 512.000000"
 preserveAspectRatio="xMidYMid meet">

<g transform="translate(0.000000,512.000000) scale(0.100000,-0.100000)"
fill="#000000" stroke="none">
<path d="M3236 4191 c-16 -11 -37 -33 -48 -49 l-18 -29 31 -14 c18 -7 185
-146 373 -309 240 -210 345 -296 358 -292 10 2 18 7 18 11 0 15 -523 658 -552
679 -40 29 -120 30 -162 3z"/>
<path d="M440 4045 l0 -55 85 0 85 0 0 55 0 55 -85 0 -85 0 0 -55z"/>
<path d="M740 4045 l0 -55 541 0 540 0 -3 53 -3 52 -537 3 -538 2 0 -55z"/>
<path d="M3071 4029 c-121 -25 -161 -173 -69 -255 42 -38 716 -386 735 -379
10 3 33 18 52 34 l34 28 -223 194 c-123 107 -268 233 -324 281 -105 91 -144
110 -205 97z"/>
<path d="M612 3658 l3 -53 88 -3 87 -3 0 56 0 55 -91 0 -90 0 3 -52z"/>
<path d="M920 3655 l0 -55 85 0 85 0 0 55 0 55 -85 0 -85 0 0 -55z"/>
<path d="M1230 3655 l0 -55 535 0 535 0 0 55 0 55 -535 0 -535 0 0 -55z"/>
<path d="M3965 3416 c-137 -43 -260 -161 -296 -284 -7 -24 -20 -47 -29 -52 -9
-5 -332 -2 -736 5 -801 15 -794 16 -922 -47 -135 -66 -252 -218 -282 -365 -19
-90 -8 -225 24 -305 15 -38 25 -76 21 -87 -3 -12 -83 -58 -223 -130 -240 -123
-574 -332 -609 -382 -30 -41 -31 -111 -3 -157 31 -50 76 -74 132 -69 49 4 35
-5 440 271 l86 58 421 33 420 33 373 176 c206 97 377 176 381 176 3 0 185 -94
403 -210 218 -115 410 -213 428 -218 116 -31 226 101 171 207 -24 47 -63 73
-290 192 -119 63 -221 122 -226 132 -18 33 8 53 158 115 l148 62 68 -12 c261
-46 646 205 673 439 17 136 -95 275 -292 364 -141 64 -334 88 -439 55z"/>
<path d="M1643 3203 c-35 -7 -81 -56 -88 -95 -6 -29 2 -57 45 -157 29 -66 53
-121 55 -121 1 0 18 26 38 58 20 33 68 89 106 125 l70 66 -76 60 c-41 34 -81
61 -88 61 -8 0 -19 2 -27 4 -7 2 -23 1 -35 -1z"/>
<path d="M1797 1423 c-4 -3 -7 -28 -7 -55 l0 -48 90 0 90 0 0 55 0 55 -83 0
c-46 0 -87 -3 -90 -7z"/>
<path d="M2100 1375 l0 -55 85 0 85 0 0 55 0 55 -85 0 -85 0 0 -55z"/>
<path d="M2410 1375 l0 -55 535 0 535 0 0 55 0 55 -535 0 -535 0 0 -55z"/>
<path d="M940 985 l0 -55 85 0 85 0 0 55 0 55 -85 0 -85 0 0 -55z"/>
<path d="M1240 985 l0 -55 90 0 90 0 0 55 0 55 -90 0 -90 0 0 -55z"/>
<path d="M1550 985 l0 -55 535 0 535 0 0 55 0 55 -535 0 -535 0 0 -55z"/>
</g>
</svg>
