<?xml version="1.0" standalone="no"?>
<!DOCTYPE svg PUBLIC "-//W3C//DTD SVG 20010904//EN"
 "http://www.w3.org/TR/2001/REC-SVG-20010904/DTD/svg10.dtd">
<svg version="1.0" xmlns="http://www.w3.org/2000/svg"
 width="512.000000pt" height="512.000000pt" viewBox="0 0 512.000000 512.000000"
 preserveAspectRatio="xMidYMid meet">

<g transform="translate(0.000000,512.000000) scale(0.100000,-0.100000)"
fill="#000000" stroke="none">
<path d="M3556 3738 c-17 -10 -21 -54 -8 -76 7 -10 80 -13 329 -15 344 -2 353
-1 353 49 0 51 -20 54 -352 52 -169 -1 -314 -6 -322 -10z"/>
<path d="M3261 3514 c-29 -21 -25 -64 9 -81 35 -17 640 -9 652 10 14 22 9 66
-9 75 -10 5 -156 9 -324 10 -262 1 -309 -1 -328 -14z"/>
<path d="M3605 3203 c-16 -3 -64 -13 -105 -24 -62 -17 -140 -23 -445 -34 -431
-17 -447 -19 -790 -126 -312 -97 -447 -134 -600 -165 -241 -49 -381 -97 -513
-176 -35 -21 -141 -96 -235 -167 -177 -132 -310 -217 -454 -290 -100 -50 -146
-94 -161 -152 -23 -90 20 -165 108 -189 107 -29 214 30 555 306 111 89 232
183 270 209 86 59 244 135 295 142 33 5 40 2 55 -21 42 -63 -10 -190 -139
-343 -94 -111 -117 -131 -190 -157 -90 -34 -107 -56 -284 -362 -47 -81 -82
-153 -82 -168 0 -58 54 -116 108 -116 36 0 273 175 412 305 41 39 86 78 100
86 39 24 124 55 260 94 146 43 267 98 328 151 24 20 69 68 100 107 157 197
208 215 522 183 381 -38 595 -28 805 39 17 5 22 -1 33 -37 34 -114 126 -182
269 -199 43 -6 123 -25 179 -44 128 -43 361 -145 439 -193 56 -34 65 -37 135
-36 83 0 178 29 216 65 28 27 36 66 19 105 -15 37 -44 55 -345 219 -316 172
-320 175 -320 206 0 46 24 56 83 35 82 -28 233 -102 281 -137 40 -28 51 -31
95 -27 92 9 195 94 208 171 5 31 0 46 -35 99 -22 35 -45 82 -51 106 -6 23 -16
61 -22 84 -7 27 -29 60 -65 98 -43 45 -56 67 -63 105 -13 71 -44 82 -115 41
-73 -42 -72 -42 -257 38 -211 90 -367 144 -468 162 -78 14 -85 14 -136 7z
m939 -506 c9 -14 7 -21 -7 -32 -22 -16 -43 -11 -74 18 -34 30 -28 38 23 35 32
-2 50 -9 58 -21z"/>
<path d="M842 3094 c-29 -20 -29 -59 2 -79 19 -13 49 -15 156 -12 116 3 134 6
146 22 19 26 18 41 -5 64 -17 17 -35 20 -148 20 -101 1 -133 -2 -151 -15z"/>
<path d="M1254 3097 c-16 -9 -19 -73 -3 -82 5 -4 122 -8 258 -10 270 -4 294 0
299 47 6 53 -16 58 -291 55 -137 -1 -255 -6 -263 -10z"/>
<path d="M766 2915 c-19 -19 -21 -58 -3 -73 7 -6 133 -11 328 -13 338 -4 349
-3 349 45 -1 52 4 51 -339 54 -282 2 -321 1 -335 -13z"/>
</g>
</svg>
