<?xml version="1.0" standalone="no"?>
<!DOCTYPE svg PUBLIC "-//W3C//DTD SVG 20010904//EN"
 "http://www.w3.org/TR/2001/REC-SVG-20010904/DTD/svg10.dtd">
<svg version="1.0" xmlns="http://www.w3.org/2000/svg"
 width="512.000000pt" height="512.000000pt" viewBox="0 0 512.000000 512.000000"
 preserveAspectRatio="xMidYMid meet">

<g transform="translate(0.000000,512.000000) scale(0.100000,-0.100000)"
fill="#000000" stroke="none">
<path d="M315 4935 c-15 -14 -25 -36 -25 -52 0 -32 824 -4598 840 -4655 21
-74 -98 -68 1428 -68 917 0 1380 3 1392 10 11 6 24 20 30 31 12 22 850 4638
850 4682 0 16 -10 38 -25 52 l-24 25 -2221 0 -2221 0 -24 -25z m4338 -157 c-2
-13 -62 -342 -132 -732 -77 -426 -133 -711 -141 -716 -19 -12 -254 -68 -355
-85 -286 -47 -545 -47 -790 1 -162 32 -320 93 -616 240 -159 79 -333 159 -386
180 -396 148 -837 132 -1286 -47 -54 -22 -130 -55 -169 -75 -39 -19 -74 -32
-78 -27 -4 4 -56 276 -115 603 -59 327 -110 614 -115 638 l-7 42 2097 0 2097
0 -4 -22z"/>
</g>
</svg>
